<?xml version="1.0" encoding="UTF-8"?>
<svg width="100px" height="100px" viewBox="0 0 100 100" version="1.1" xmlns="http://www.w3.org/2000/svg" xmlns:xlink="http://www.w3.org/1999/xlink">
    <!-- Generator: Sketch 42 (36781) - http://www.bohemiancoding.com/sketch -->
    <title>cancer</title>
    <desc>Created with Sketch.</desc>
    <defs></defs>
    <g id="Page-1" stroke="none" stroke-width="1" fill="none" fill-rule="evenodd">
        <g id="cancer" fill-rule="nonzero">
            <g id="microscope" transform="translate(10.000000, 0.000000)">
                <g id="Capa_1">
                    <g id="Group">
                        <rect id="Rectangle-path" fill="#0B389C" x="26.178913" y="0" width="13.0434783" height="15.2656522"></rect>
                        <path d="M74.005,60.5058696 L74.005,53.0434783 C74.005,48.8204348 72.5152174,44.3784783 69.8106522,40.5358696 C67.1058696,36.6930435 63.4269565,33.7921739 59.4513043,32.3673913 L45.7441304,27.4928261 L45.7441304,15.2656522 L32.7006522,15.2656522 L32.7006522,41.3043478 L45.7441304,41.3043478 L55.0506522,44.646087 C58.0891304,45.735 60.9615217,49.8158696 60.9615217,53.0434783 L60.9615217,60.3841304 C62.8563043,59.311087 65.0443478,58.6956522 67.3776087,58.6956522 C69.7978261,58.6956522 72.0623913,59.3571739 74.005,60.5058696 Z" id="Shape" fill="#3FC3D8"></path>
                        <path d="M74.005,84.7826087 L74.005,82.9723913 C72.0623913,84.121087 69.7976087,84.7826087 67.3776087,84.7826087 L74.005,84.7826087 Z" id="Shape" fill="#6BE0F4"></path>
                        <path d="M67.3776087,84.7826087 C61.6986957,84.7826087 56.8702174,81.1523913 55.0791304,76.0869565 L45.7441304,76.0869565 L45.7441304,84.7826087 L67.3776087,84.7826087 Z" id="Shape" fill="#6BE0F4"></path>
                        <polygon id="Shape" fill="#6BE0F4" points="19.75 41.3043478 32.7006522 41.3043478 32.7006522 15.2656522 19.6571739 15.2656522 19.6571739 50 19.75 50"></polygon>
                        <path d="M54.3341304,71.7391304 C54.3341304,70.2141304 54.5982609,68.7515217 55.0791304,67.3913043 L19.6571739,67.3913043 L19.6571739,76.0869565 L55.0791304,76.0869565 C54.5982609,74.7267391 54.3341304,73.2641304 54.3341304,71.7391304 Z" id="Shape" fill="#1398AD"></path>
                        <rect id="Rectangle-path" fill="#1398AD" x="19.6571739" y="50" width="8.60282609" height="8.69565217"></rect>
                        <rect id="Rectangle-path" fill="#1398AD" x="37.1413043" y="50" width="8.60282609" height="8.69565217"></rect>
                        <rect id="Rectangle-path" fill="#0B389C" x="19.75" y="41.3043478" width="25.9941304" height="8.69565217"></rect>
                        <path d="M55.0791304,76.0869565 C56.87,81.1523913 61.6986957,84.7826087 67.3776087,84.7826087 L67.3776087,58.6956522 C65.0445652,58.6956522 62.8565217,59.311087 60.9615217,60.3841304 C58.2441304,61.9230435 56.1343478,64.4069565 55.0791304,67.3913043 C54.5982609,68.7515217 54.3341304,70.2141304 54.3341304,71.7391304 C54.3341304,73.2641304 54.5982609,74.7267391 55.0791304,76.0869565 Z" id="Shape" fill="#4370D9"></path>
                        <path d="M80.421087,71.7391304 C80.421087,66.9556522 77.8445652,62.776087 74.005,60.5058696 C72.0623913,59.3571739 69.7976087,58.6956522 67.3776087,58.6956522 L67.3776087,84.7826087 C69.7978261,84.7826087 72.0626087,84.121087 74.005,82.9723913 C77.8445652,80.7021739 80.421087,76.5226087 80.421087,71.7391304 Z" id="Shape" fill="#0B389C"></path>
                        <rect id="Rectangle-path" fill="#1398AD" x="32.7006522" y="84.7826087" width="41.3043478" height="15.2173913"></rect>
                        <path d="M13.1354348,84.7826087 C9.50934783,84.7826087 5.3723913,87.5086957 3.94195652,90.8413043 L0.0136956522,100 L32.7006522,100 L32.7006522,84.7826087 L13.1354348,84.7826087 Z" id="Shape" fill="#3FC3D8"></path>
                    </g>
                </g>
            </g>
        </g>
    </g>
</svg>