<?xml version="1.0" encoding="UTF-8"?>
<svg width="100px" height="100px" viewBox="0 0 100 100" version="1.1" xmlns="http://www.w3.org/2000/svg" xmlns:xlink="http://www.w3.org/1999/xlink">
    <!-- Generator: Sketch 42 (36781) - http://www.bohemiancoding.com/sketch -->
    <title>cardio</title>
    <desc>Created with Sketch.</desc>
    <defs></defs>
    <g id="Page-1" stroke="none" stroke-width="1" fill="none" fill-rule="evenodd">
        <g id="cardio" fill-rule="nonzero">
            <g id="retina" transform="translate(0.000000, 7.000000)">
                <g id="Capa_1">
                    <g id="Layer_2_17_">
                        <g id="Group">
                            <path d="M37.1643705,19.1315914 C37.4660333,18.2907363 38.3118765,17.7729216 39.1983373,17.8890736 C40.0840855,18.0045131 40.7700713,18.7213777 40.8463183,19.6114014 L43.8828979,55.0900238 L49.5691211,34.5933492 C49.8016627,33.7555819 50.5695962,33.1793349 51.4422803,33.2016627 C52.3114014,33.2209026 53.0567696,33.8273159 53.252019,34.6745843 L56.4185273,48.411639 L61.8249406,25.6961995 C62.0365796,24.8073634 62.8517815,24.1985748 63.7629454,24.2380048 C64.6755344,24.2809976 65.428266,24.9674584 65.5553444,25.872209 L69.5902613,54.6375297 L71.3992874,48.7914489 C71.6456057,47.9957245 72.3817102,47.4529691 73.2147268,47.4529691 L93.5441805,47.4529691 C96.5280285,42.9603325 98.6513064,38.4874109 99.3577197,34.1850356 C100.908314,24.6627078 99.3957245,16.8095012 94.8517815,10.8472684 C90.2634204,4.82826603 83.2935867,1.39406176 73.524228,0.347743468 C72.5855107,0.253444181 71.727791,0.209026128 70.8776722,0.209026128 C63.963658,0.209026128 56.9926366,2.78028504 51.6353919,7.12945368 C46.2857482,2.78028504 39.3085511,0.209026128 32.4078385,0.209026128 C31.5491686,0.209026128 30.6990499,0.253444181 29.7539192,0.347743468 C19.9847981,1.39406176 13.007601,4.82826603 8.42517815,10.8472684 C3.8824228,16.8097387 2.36840855,24.6627078 3.91947743,34.1850356 C4.63705463,38.5553444 6.81472684,43.1002375 9.87078385,47.6622328 L26.9275534,47.6622328 L37.1643705,19.1315914 Z" id="Shape" fill="#E74424"></path>
                            <path d="M70.7057007,63.8888361 C70.4425178,64.7391924 69.6223278,65.2935867 68.7377672,65.2211401 C67.8508314,65.1496437 67.1320665,64.472209 67.0085511,63.5909739 L63.1907363,36.3726841 L58.2377672,57.1831354 C58.0342043,58.0394299 57.2688836,58.6432304 56.3893112,58.6434679 L56.3826603,58.6434679 C55.5,58.64038 54.735867,58.0299287 54.5375297,57.1700713 L51.2304038,42.8230404 L44.7216152,66.2840855 C44.4914489,67.1128266 43.7372922,67.676247 42.891924,67.6764846 C42.8330166,67.6764846 42.7741093,67.6736342 42.7147268,67.668171 C41.7990499,67.5831354 41.075772,66.8543943 40.9973872,65.9380048 L37.8021378,28.608076 L30.0534442,50.2042755 C29.7826603,50.9591449 29.0669834,51.4627078 28.2648456,51.4627078 L12.607601,51.4627078 C18.9261283,59.6954869 27.5852732,67.8429929 35.1731591,74.9812352 C35.1731591,74.9812352 41.6396675,81.4729216 43.580285,83.1365796 C45.0448931,84.3907363 48.2083135,86.9114014 51.6420428,86.9114014 C55.0707838,86.9114014 58.2415677,84.3907363 59.6973872,83.1365796 C61.6382423,81.4726841 68.1045131,74.9812352 68.1045131,74.9812352 C75.756057,67.7833729 84.4973872,59.5570071 90.8294537,51.2534442 L74.616152,51.2534442 L70.7057007,63.8888361 Z" id="Shape" fill="#E74424"></path>
                            <path d="M97.6786223,47.4529691 L93.5444181,47.4529691 L73.2149644,47.4529691 C72.3819477,47.4529691 71.6460808,47.9957245 71.3995249,48.7914489 L69.5904988,54.6375297 L65.5555819,25.872209 C65.4285036,24.9674584 64.675772,24.2809976 63.7631829,24.2380048 C62.852019,24.1985748 62.0365796,24.8073634 61.8251781,25.6961995 L56.4187648,48.411639 L53.2522565,34.6745843 C53.0570071,33.8273159 52.311639,33.2206651 51.4425178,33.2016627 C50.5698337,33.1793349 49.8019002,33.7555819 49.5693587,34.5933492 L43.8831354,55.0900238 L40.8465558,19.6114014 C40.7705463,18.7213777 40.0845606,18.0045131 39.1985748,17.8890736 C38.312114,17.7729216 37.4662708,18.2907363 37.1646081,19.1315914 L26.927791,47.6622328 L9.87102138,47.6622328 L1.90023753,47.6622328 C0.850831354,47.6622328 0,48.5130641 0,49.5624703 C0,50.6118765 0.850831354,51.4627078 1.90023753,51.4627078 L12.607601,51.4627078 L28.2648456,51.4627078 C29.0667458,51.4627078 29.7826603,50.9591449 30.0534442,50.2042755 L37.8021378,28.608076 L40.9973872,65.9380048 C41.075772,66.8543943 41.7990499,67.5828979 42.7147268,67.668171 C42.7741093,67.6736342 42.8330166,67.6764846 42.891924,67.6764846 C43.7375297,67.6764846 44.4914489,67.1128266 44.7216152,66.2840855 L51.2304038,42.8230404 L54.5375297,57.1700713 C54.735867,58.0301663 55.5,58.64038 56.3826603,58.6434679 L56.3893112,58.6434679 C57.2688836,58.6434679 58.0342043,58.0394299 58.2377672,57.1831354 L63.1907363,36.3726841 L67.0085511,63.5909739 C67.132304,64.472209 67.8508314,65.1496437 68.7377672,65.2211401 C69.6225653,65.2935867 70.4425178,64.7391924 70.7057007,63.8888361 L74.6159145,51.2534442 L90.8292162,51.2534442 L97.6786223,51.2534442 C98.7280285,51.2534442 99.5788599,50.4026128 99.5788599,49.3532067 C99.5788599,48.3038005 98.7280285,47.4529691 97.6786223,47.4529691 Z" id="Shape" fill="#F7F1E6"></path>
                        </g>
                    </g>
                </g>
            </g>
        </g>
    </g>
</svg>