<?xml version="1.0" encoding="UTF-8"?>
<svg width="100px" height="100px" viewBox="0 0 100 100" version="1.1" xmlns="http://www.w3.org/2000/svg" xmlns:xlink="http://www.w3.org/1999/xlink">
    <!-- Generator: Sketch 42 (36781) - http://www.bohemiancoding.com/sketch -->
    <title>Cosmo</title>
    <desc>Created with Sketch.</desc>
    <defs></defs>
    <g id="Page-1" stroke="none" stroke-width="1" fill="none" fill-rule="evenodd">
        <g id="Cosmo" fill-rule="nonzero">
            <g id="doctor" transform="translate(9.000000, 0.000000)">
                <g id="Capa_1">
                    <g id="Group">
                        <path d="M23.5253555,65.0630332 C27.0125592,62.8177725 26.6225118,56.1353081 26.6225118,54.5760664 L54.6902844,54.5760664 C54.6902844,56.1353081 54.2578199,62.8177725 57.7447867,65.0630332 L40.6563981,84.2030806 L23.5253555,65.0630332 Z" id="Shape" fill="#FFD7A3"></path>
                        <path d="M51.571564,71.728673 L57.7447867,65.0630332 C54.2575829,62.8180095 54.6902844,56.1353081 54.6902844,54.5760664 L26.6225118,54.5760664 C28.6362559,60.3658768 41.9559242,70.2992891 51.571564,71.728673 Z" id="Shape" fill="#FDC88E"></path>
                        <path d="M62.4869668,34.3049763 C62.4869668,46.7921801 55.2966825,62.3727488 40.6566351,62.3727488 C26.0165877,62.3727488 18.8263033,46.7921801 18.8263033,34.3049763 C18.8263033,21.8177725 28.600237,17.1523697 40.6566351,17.1523697 C52.7130332,17.1523697 62.4869668,21.8177725 62.4869668,34.3049763 Z" id="Shape" fill="#FFE1B2"></path>
                        <path d="M19.5547393,37.0338863 C17.2172986,36.4490521 15.686019,37.6985782 15.686019,40.1526066 C15.686019,43.4011848 18.8293839,51.3601896 22.1338863,46.3898104 C25.4386256,41.4194313 19.5547393,37.0338863 19.5547393,37.0338863 Z" id="Shape" fill="#FFE1B2"></path>
                        <path d="M61.3611374,37.0338863 C63.9125592,36.4490521 65.5841232,37.6985782 65.5841232,40.1526066 C65.5841232,43.4011848 62.1530806,51.3601896 58.5459716,46.3898104 C54.9388626,41.4194313 61.3611374,37.0338863 61.3611374,37.0338863 Z" id="Shape" fill="#FFE1B2"></path>
                        <path d="M23.5040284,28.0677725 C22.8542654,29.9367299 21.9447867,40.5424171 21.9447867,40.5424171 L18.8260664,38.8170616 L17.9490521,27.3872038 L23.5040284,28.0677725 Z" id="Shape" fill="#7E5449"></path>
                        <path d="M57.8090047,28.0677725 C58.4587678,29.9367299 59.3682464,40.5424171 59.3682464,40.5424171 L62.4869668,38.8170616 L63.363981,27.3872038 L57.8090047,28.0677725 Z" id="Shape" fill="#7E5449"></path>
                        <path d="M76.5208531,99.7964455 C79.1045024,99.7964455 81.1988152,97.7021327 81.1988152,95.1184834 L81.1988152,83.1983412 C81.1988152,76.3372038 75.8523697,69.0125592 69.3177725,66.9218009 L59.5623223,63.800237 C54.3137441,67.8135071 46.8130332,73.2881517 40.6566351,73.2881517 C34.500237,73.2881517 26.9995261,67.8135071 21.7509479,63.800237 L11.9952607,66.9218009 C5.46066351,69.0125592 0.114218009,76.3372038 0.114218009,83.1983412 L0.114218009,95.1184834 C0.114218009,97.7021327 2.20853081,99.7964455 4.79218009,99.7964455 L76.5208531,99.7964455 L76.5208531,99.7964455 Z" id="Shape" fill="#527992"></path>
                        <path d="M43.7751185,77.9658768 C43.7751185,78.8234597 43.0734597,79.5251185 42.2158768,79.5251185 L39.0971564,79.5251185 C38.2395735,79.5251185 37.5379147,78.8234597 37.5379147,77.9658768 L37.5379147,74.8471564 C37.5379147,73.9895735 38.2395735,73.2879147 39.0971564,73.2879147 L42.2158768,73.2879147 C43.0734597,73.2879147 43.7751185,73.9895735 43.7751185,74.8471564 L43.7751185,77.9658768 L43.7751185,77.9658768 Z" id="Shape" fill="#545465"></path>
                        <ellipse id="Oval" fill="#D0D7DC" cx="40.6563981" cy="87.3218009" rx="1.55924171" ry="1.55924171"></ellipse>
                        <path d="M40.6563981,73.2879147 L34.150237,79.7940758 C33.4727488,80.471564 32.350237,80.3834123 31.7864929,79.6085308 L20.3853081,63.9317536 L24.0170616,60.3 C24.6035545,59.7135071 25.5464455,59.6888626 26.1627962,60.2436019 L40.6563981,73.2879147 Z" id="Shape" fill="#475F7F"></path>
                        <path d="M40.6563981,73.2879147 L47.1625592,79.7940758 C47.8400474,80.471564 48.9625592,80.3834123 49.5263033,79.6085308 L60.9274882,63.9317536 L57.2957346,60.3 C56.7092417,59.7135071 55.7663507,59.6888626 55.15,60.2436019 L40.6563981,73.2879147 Z" id="Shape" fill="#475F7F"></path>
                        <polygon id="Shape" fill="#545465" points="42.7988152 78.6481043 40.6563981 79.5251185 38.514218 78.6481043 37.5379147 99.7964455 40.6563981 99.7964455 43.7751185 99.7964455"></polygon>
                        <path d="M77.0699052,99.7409953 C79.3914692,99.4661137 81.1985782,97.5137441 81.1985782,95.1184834 L81.1985782,83.1983412 C81.1985782,76.3372038 75.8521327,69.0125592 69.3175355,66.9218009 L60.8154028,64.2011848 L60.8154028,64.2011848 L48.4530806,99.7409953 L77.0699052,99.7409953 Z" id="Shape" fill="#E4EBF0"></path>
                        <path d="M20.4973934,64.2011848 L20.4973934,64.2011848 L11.9952607,66.9218009 C5.46066351,69.0125592 0.114218009,76.3372038 0.114218009,83.1983412 L0.114218009,95.1184834 C0.114218009,97.513981 1.92156398,99.4661137 4.242891,99.7409953 L32.8599526,99.7409953 L20.4973934,64.2011848 Z" id="Shape" fill="#E4EBF0"></path>
                        <path d="M20.3853081,63.9319905 L13.7528436,71.950237 C13.135545,72.6594787 13.2817536,73.749763 14.064218,74.271327 L17.2668246,76.4063981 L13.5623223,80.1109005 C13.0061611,80.6670616 12.9511848,81.55 13.4341232,82.1708531 L23.5042654,99.7962085 L32.8601896,99.7407583 L20.3853081,63.9319905 Z" id="Shape" fill="#D0D7DC"></path>
                        <path d="M60.9274882,63.9319905 L67.5599526,71.950237 C68.1772512,72.6594787 68.0310427,73.749763 67.2485782,74.271327 L64.0459716,76.4063981 L67.7504739,80.1109005 C68.3066351,80.6670616 68.3616114,81.55 67.878673,82.1708531 L57.8085308,99.7962085 L48.4526066,99.7407583 L60.9274882,63.9319905 Z" id="Shape" fill="#D0D7DC"></path>
                        <path d="M64.0462085,28.0677725 L17.2665877,28.0677725 L17.2665877,5.61540284 C31.9609005,-1.87180095 49.3516588,-1.87180095 64.0462085,5.61540284 L64.0462085,28.0677725 Z" id="Shape" fill="#E4EBF0"></path>
                    </g>
                </g>
            </g>
        </g>
    </g>
</svg>