<?xml version="1.0" encoding="UTF-8"?>
<svg width="100px" height="100px" viewBox="0 0 100 100" version="1.1" xmlns="http://www.w3.org/2000/svg" xmlns:xlink="http://www.w3.org/1999/xlink">
    <!-- Generator: Sketch 42 (36781) - http://www.bohemiancoding.com/sketch -->
    <title>Dentist</title>
    <desc>Created with Sketch.</desc>
    <defs></defs>
    <g id="Page-1" stroke="none" stroke-width="1" fill="none" fill-rule="evenodd">
        <g id="Dentist" fill-rule="nonzero">
            <g id="tooth" transform="translate(7.000000, 0.000000)">
                <g id="Capa_1">
                    <g id="Group">
                        <path d="M60.8356522,0 C54.0371739,0 47.8552174,2.64217391 43.2608696,6.95347826 L43.2608696,29.4197826 L43.2608696,52.173913 C49.263913,52.173913 54.1304348,57.0404348 54.1304348,63.0434783 L54.1304348,100 L62.7282609,100 C68.6765217,100 74.823913,95.3058696 76.39,89.5697826 L86.5217391,52.4323913 L86.5217391,25.6756522 C86.5217391,11.496087 75.0208696,0 60.8356522,0 Z" id="Shape" fill="#FFD152"></path>
                        <path d="M25.686087,0 C11.5008696,0 0,11.496087 0,25.6756522 L0,52.4323913 L10.1317391,89.5697826 C11.6978261,95.3058696 17.8452174,100 23.7934783,100 L32.3913043,100 L32.3913043,63.0434783 C32.3913043,57.0404348 37.2578261,52.173913 43.2608696,52.173913 L43.2608696,29.42 L43.2608696,6.95369565 C38.6665217,2.64217391 32.4845652,0 25.686087,0 Z M17.3913043,52.4323913 L8.69565217,52.4323913 L8.69565217,43.7367391 L17.3913043,43.7367391 L17.3913043,52.4323913 Z M25.686087,17.3913043 C21.1123913,17.3913043 17.3913043,21.1076087 17.3913043,25.6756522 L17.3913043,34.7826087 L8.69565217,34.7826087 L8.69565217,25.6756522 C8.69565217,16.3128261 16.3176087,8.69565217 25.686087,8.69565217 L25.686087,17.3913043 Z" id="Shape" fill="#FFE292"></path>
                        <path d="M8.69565217,25.6756522 L8.69565217,34.7826087 L17.3913043,34.7826087 L17.3913043,25.6756522 C17.3913043,21.1076087 21.1123913,17.3913043 25.686087,17.3913043 L25.686087,8.69565217 C16.3176087,8.69565217 8.69565217,16.3128261 8.69565217,25.6756522 Z" id="Shape" fill="#FFFFFF"></path>
                        <rect id="Rectangle-path" fill="#FFFFFF" x="8.69565217" y="43.7367391" width="8.69565217" height="8.69565217"></rect>
                    </g>
                </g>
            </g>
        </g>
    </g>
</svg>