<?xml version="1.0" encoding="UTF-8"?>
<svg width="100px" height="100px" viewBox="0 0 100 100" version="1.1" xmlns="http://www.w3.org/2000/svg" xmlns:xlink="http://www.w3.org/1999/xlink">
    <!-- Generator: Sketch 42 (36781) - http://www.bohemiancoding.com/sketch -->
    <title>ENT</title>
    <desc>Created with Sketch.</desc>
    <defs></defs>
    <g id="Page-1" stroke="none" stroke-width="1" fill="none" fill-rule="evenodd">
        <g id="ENT" fill-rule="nonzero">
            <g id="ear" transform="translate(13.000000, 0.000000)">
                <g id="Capa_1">
                    <g id="Group">
                        <path d="M73.9130435,36.9565217 C73.9130435,16.5458696 57.3669565,0 36.9565217,0 C16.546087,0 0,16.5458696 0,36.9565217 L0,73.9130435 C0,88.3204348 11.6795652,100 26.0869565,100 C40.4943478,100 52.173913,88.3204348 52.173913,73.9130435 C52.173913,72.8352174 52.1071739,71.7730435 51.9802174,70.7293478 C64.9030435,64.9719565 73.9130435,52.0171739 73.9130435,36.9565217 Z M47.5567391,60.8008696 L40.2204348,64.0693478 L41.1904348,72.0421739 C41.266087,72.6643478 41.3043478,73.293913 41.3043478,73.9130435 C41.3043478,82.303913 34.4778261,89.1304348 26.0869565,89.1304348 C17.696087,89.1304348 10.8695652,82.303913 10.8695652,73.9130435 L10.8695652,65.326087 L15.2173913,65.326087 C18.8193478,65.326087 21.7391304,62.406087 21.7391304,58.8043478 C21.7391304,55.2026087 18.8193478,52.2826087 15.2173913,52.2826087 L10.8695652,52.2826087 L10.8695652,36.9565217 C10.8695652,22.5721739 22.5721739,10.8695652 36.9565217,10.8695652 C51.3408696,10.8695652 63.0434783,22.5721739 63.0434783,36.9565217 C63.0434783,47.25 56.9645652,56.6091304 47.5567391,60.8008696 Z" id="Shape" fill="#F57B71"></path>
                        <path d="M36.9565217,10.8695652 C22.5721739,10.8695652 10.8695652,22.5721739 10.8695652,36.9565217 L10.8695652,52.2826087 L15.2173913,52.2826087 C18.8193478,52.2826087 21.7391304,55.2026087 21.7391304,58.8043478 C21.7391304,62.406087 18.8193478,65.326087 15.2173913,65.326087 L10.8695652,65.326087 L10.8695652,73.9130435 L15.2173913,73.9130435 C23.6217391,73.9130435 30.4347826,67.1 30.4347826,58.6956522 C30.4347826,51.8028261 25.8502174,45.9832609 19.5652174,44.1121739 L19.5652174,36.9565217 C19.5652174,27.3669565 27.3669565,19.5652174 36.9565217,19.5652174 C46.546087,19.5652174 54.3478261,27.3669565 54.3478261,36.9565217 L63.0434783,36.9565217 C63.0434783,22.5721739 51.3408696,10.8695652 36.9565217,10.8695652 Z" id="Shape" fill="#EA6453"></path>
                        <path d="M54.3478261,36.9565217 C54.3478261,27.3669565 46.546087,19.5652174 36.9565217,19.5652174 C27.3669565,19.5652174 19.5652174,27.3669565 19.5652174,36.9565217 L19.5652174,44.1121739 C25.8502174,45.9832609 30.4347826,51.8028261 30.4347826,58.6956522 C30.4347826,67.1 23.6217391,73.9130435 15.2173913,73.9130435 L10.8695652,73.9130435 C10.8695652,82.303913 17.696087,89.1304348 26.0869565,89.1304348 C34.4778261,89.1304348 41.3043478,82.303913 41.3043478,73.9130435 C41.3043478,73.2936957 41.2658696,72.6643478 41.1904348,72.0421739 L40.2204348,64.0693478 L47.5567391,60.8008696 C56.9645652,56.6091304 63.0434783,47.25 63.0434783,36.9565217 L54.3478261,36.9565217 Z" id="Shape" fill="#EF9E8F"></path>
                    </g>
                </g>
            </g>
        </g>
    </g>
</svg>