<?xml version="1.0" encoding="UTF-8"?>
<svg width="100px" height="100px" viewBox="0 0 100 100" version="1.1" xmlns="http://www.w3.org/2000/svg" xmlns:xlink="http://www.w3.org/1999/xlink">
    <!-- Generator: Sketch 42 (36781) - http://www.bohemiancoding.com/sketch -->
    <title>general</title>
    <desc>Created with Sketch.</desc>
    <defs></defs>
    <g id="Page-1" stroke="none" stroke-width="1" fill="none" fill-rule="evenodd">
        <g id="general" fill-rule="nonzero">
            <g id="pills" transform="translate(10.000000, 0.000000)">
                <g id="Capa_1">
                    <g id="Layer_2_31_">
                        <g id="Group">
                            <path d="M57.2951163,74.0551163 L41.6288372,58.3888372 L19.9372093,80.0804651 L35.6034884,95.7467442 L35.6134884,95.7367442 C41.6288372,101.328605 51.0381395,101.200465 56.8934884,95.3451163 C62.7488372,89.4897674 62.8769767,80.0804651 57.2851163,74.0653488 L57.2951163,74.0551163 Z" id="Shape" fill="#F3DBBD"></path>
                            <path d="M25.9625581,42.7223256 L25.9525581,42.7323256 C19.9372093,37.1404651 10.527907,37.2686047 4.67255814,43.1239535 C-1.1827907,48.9790698 -1.31093023,58.3886047 4.28093023,64.4039535 L4.27093023,64.4139535 L19.9374419,80.0802326 L41.6290698,58.3886047 L25.9625581,42.7223256 Z" id="Shape" fill="#E74424"></path>
                            <path d="M44.2323256,4.08906977 L44.2223256,4.09906977 C38.2069767,-1.4927907 28.7976744,-1.36465116 22.9423256,4.49069767 C17.0869767,10.3460465 16.9588372,19.7553488 22.5506977,25.7706977 L22.5406977,25.7806977 L38.2069767,41.4469767 L59.8986047,19.7551163 L44.2323256,4.08906977 Z" id="Shape" fill="#F3DBBD"></path>
                            <path d="M75.5548837,35.4316279 L75.5651163,35.4213953 L59.8986047,19.7551163 L38.2069767,41.4469767 L53.8732558,57.1134884 L53.8832558,57.1032558 C59.8986047,62.6951163 69.307907,62.5669767 75.1632558,56.7116279 C81.0186047,50.8562791 81.1467442,41.4469767 75.5548837,35.4316279 Z" id="Shape" fill="#E74424"></path>
                        </g>
                    </g>
                </g>
            </g>
        </g>
    </g>
</svg>