<?xml version="1.0" encoding="UTF-8"?>
<svg width="100px" height="100px" viewBox="0 0 100 100" version="1.1" xmlns="http://www.w3.org/2000/svg" xmlns:xlink="http://www.w3.org/1999/xlink">
    <!-- Generator: Sketch 42 (36781) - http://www.bohemiancoding.com/sketch -->
    <title>opthal</title>
    <desc>Created with Sketch.</desc>
    <defs></defs>
    <g id="Page-1" stroke="none" stroke-width="1" fill="none" fill-rule="evenodd">
        <g id="opthal" fill-rule="nonzero">
            <g id="eye" transform="translate(0.000000, 17.000000)">
                <g id="Capa_1">
                    <g id="Group">
                        <path d="M23.9345652,33.0434783 C23.9345652,23.4856522 29.476087,15.131087 37.4076087,10.5941304 C26.1932609,14.0319565 16.301087,21.9717391 9.87608696,33.0434783 C16.3002174,44.1136957 26.1906522,52.0528261 37.4032609,55.4915217 C29.4741304,50.9528261 23.9345652,42.5995652 23.9345652,33.0434783 Z" id="Shape" fill="#FFFFFF"></path>
                        <path d="M63.9932609,11.0495652 C71.251087,15.6776087 76.0654348,23.7969565 76.0654348,33.0434783 C76.0654348,42.2917391 71.2493478,50.4121739 63.9895652,55.0386957 C74.6265217,51.3865217 83.9669565,43.6530435 90.123913,33.0434783 C83.9678261,22.4352174 74.6286957,14.7021739 63.9932609,11.0495652 Z" id="Shape" fill="#6BE0F4"></path>
                        <path d="M76.0654348,33.0434783 C76.0654348,23.7967391 71.251087,15.6776087 63.9932609,11.0495652 C59.6497826,9.55782609 55.09,8.74826087 50.4426087,8.69956522 L50.4426087,21.1341304 C50.7584783,21.1341304 51.0691304,21.1502174 51.3769565,21.1745652 C52.6152174,18.7817391 54.991087,17.1643478 57.9395652,17.1643478 C62.3169565,17.1643478 65.8791304,20.7265217 65.8791304,25.103913 C65.8791304,28.053913 64.26,30.6319565 61.8647826,32.0006522 C61.8923913,32.3445652 61.9093478,32.6919565 61.9093478,33.0434783 C61.9093478,39.6095652 57.0086957,44.9528261 50.4426087,44.9528261 L50.4426087,57.3873913 C55.0886957,57.338913 59.6471739,56.5295652 63.9895652,55.0386957 C71.2493478,50.4121739 76.0654348,42.2917391 76.0654348,33.0434783 Z" id="Shape" fill="#0B389C"></path>
                        <path d="M38.0906522,33.0434783 C38.0906522,26.4773913 43.8765217,21.1341304 50.4426087,21.1341304 L50.4426087,8.69956522 C50.295,8.69804348 50.1476087,8.69565217 50,8.69565217 C45.6971739,8.69565217 41.4658696,9.35021739 37.4078261,10.5941304 C29.476087,15.1308696 23.9347826,23.4854348 23.9347826,33.0434783 C23.9347826,42.5995652 29.4741304,50.9528261 37.4034783,55.4915217 C41.4628261,56.7363043 45.6956522,57.3913043 50,57.3913043 C50.1476087,57.3913043 50.295,57.388913 50.4426087,57.3873913 L50.4426087,44.9528261 C43.8767391,44.9528261 38.0906522,39.6095652 38.0906522,33.0434783 Z" id="Shape" fill="#4370D9"></path>
                        <path d="M38.0906522,33.0434783 C38.0906522,39.6095652 43.8765217,44.9528261 50.4426087,44.9528261 C57.0086957,44.9528261 61.9093478,39.6095652 61.9093478,33.0434783 C61.9093478,32.6919565 61.8923913,32.3445652 61.8647826,32.0006522 C60.706087,32.6628261 59.3667391,33.0434783 57.9395652,33.0434783 C53.5621739,33.0434783 50.4426087,29.4813043 50.4426087,25.1041304 C50.4426087,23.6752174 50.7769565,22.3343478 51.3769565,21.1747826 C51.0691304,21.1504348 50.7584783,21.1343478 50.4426087,21.1343478 C43.8767391,21.1341304 38.0906522,26.4773913 38.0906522,33.0434783 Z" id="Shape" fill="#07215C"></path>
                        <path d="M57.9395652,33.0434783 C59.3667391,33.0434783 60.706087,32.6628261 61.8647826,32.0006522 C64.2597826,30.6319565 65.8791304,28.0541304 65.8791304,25.103913 C65.8791304,20.7265217 62.3169565,17.1643478 57.9395652,17.1643478 C54.991087,17.1643478 52.6152174,18.7817391 51.3769565,21.1745652 C50.7769565,22.3341304 50.4426087,23.675 50.4426087,25.103913 C50.4426087,29.4813043 53.5621739,33.0434783 57.9395652,33.0434783 Z" id="Shape" fill="#FFFFFF"></path>
                        <path d="M9.87608696,33.0434783 C16.301087,21.9717391 26.1932609,14.0319565 37.4078261,10.5941304 C41.4658696,9.35021739 45.6971739,8.69565217 50,8.69565217 C50.1476087,8.69565217 50.295,8.69804348 50.4426087,8.69956522 C55.09,8.74804348 59.6497826,9.55782609 63.9932609,11.0495652 C74.6286957,14.7021739 83.9678261,22.4352174 90.123913,33.0434783 L100,33.0434783 L98.9391304,31.023913 C94.0978261,21.7978261 87.1217391,14.05 78.7652174,8.6173913 C70.0891304,2.98043478 60.1434783,0 50,0 C39.8565217,0 29.9108696,2.98043478 21.2369565,8.6173913 C12.8782609,14.05 5.90217391,21.7978261 1.06086957,31.023913 L0,33.0434783 L9.87608696,33.0434783 Z" id="Shape" fill="#EF9E8F"></path>
                        <path d="M90.123913,33.0434783 C83.9671739,43.6530435 74.6265217,51.3865217 63.9895652,55.0386957 C59.6471739,56.5295652 55.0886957,57.338913 50.4426087,57.3873913 C50.295,57.388913 50.1476087,57.3913043 50,57.3913043 C45.6956522,57.3913043 41.4628261,56.7363043 37.4032609,55.4915217 C26.1906522,52.0528261 16.3002174,44.1136957 9.87608696,33.0434783 L0,33.0434783 L1.06086957,35.0630435 C5.90217391,44.2891304 12.8782609,52.0369565 21.2369565,57.4695652 C29.9108696,63.1065217 39.8565217,66.0869565 50,66.0869565 C60.1434783,66.0869565 70.0891304,63.1065217 78.7652174,57.4695652 C87.1217391,52.0369565 94.0978261,44.2891304 98.9391304,35.0630435 L100,33.0434783 L90.123913,33.0434783 Z" id="Shape" fill="#F57B71"></path>
                    </g>
                </g>
            </g>
        </g>
    </g>
</svg>