<?xml version="1.0" encoding="UTF-8"?>
<svg width="100px" height="100px" viewBox="0 0 100 100" version="1.1" xmlns="http://www.w3.org/2000/svg" xmlns:xlink="http://www.w3.org/1999/xlink">
    <!-- Generator: Sketch 42 (36781) - http://www.bohemiancoding.com/sketch -->
    <title>ortho</title>
    <desc>Created with Sketch.</desc>
    <defs></defs>
    <g id="Page-1" stroke="none" stroke-width="1" fill="none" fill-rule="evenodd">
        <g id="ortho" fill-rule="nonzero">
            <g id="x-rays" transform="translate(-1.000000, 0.000000)">
                <g id="Capa_1">
                    <g id="Layer_2_6_">
                        <g id="Group">
                            <path d="M36.1914948,36.0448454 C37.8018041,36.2492268 39.8548969,35.9615979 41.8247423,35.2554124 C45.835567,33.8149485 48.2623711,31.1474227 47.7518041,29.7268041 C47.5585052,29.1847938 46.8097938,28.6822165 45.8726804,28.4528351 C45.0257732,29.0518041 44.0260309,29.568299 42.9360825,29.9590206 C41.6023196,30.4358247 40.2427835,30.6899485 39.0043814,30.6899485 C38.8863402,30.6899485 38.7760309,30.6822165 38.6600515,30.6775773 C38.578866,30.8265464 38.5072165,30.9518041 38.4512887,31.0476804 C38.2963918,31.3193299 38.0087629,31.4904639 37.6914948,31.4976804 L37.6726804,31.4976804 C37.3649485,31.4976804 37.075,31.3412371 36.9146907,31.0814433 L36.6551546,30.6899485 C34.3453608,32.1858247 33.4154639,33.8698454 33.732732,34.7548969 C33.9628866,35.3984536 34.8804124,35.8822165 36.1914948,36.0448454 Z" id="Shape" fill="#81B6B2"></path>
                            <path d="M45.9110825,26.1304124 C46.5765464,25.4255155 46.8703608,24.7219072 46.7023196,24.2520619 C46.4850515,23.6466495 45.4646907,23.2579897 44.0997423,23.2579897 C43.3322165,23.2579897 42.5015464,23.3780928 41.656701,23.6064433 C41.2159794,25.4273196 40.3456186,27.4141753 39.5969072,28.9085052 C40.4747423,28.843299 41.4152062,28.6481959 42.3505155,28.3118557 C43.7948454,27.7920103 45.0917526,26.9971649 45.9110825,26.1304124 Z" id="Shape" fill="#81B6B2"></path>
                            <path d="M36.0791237,42.8850515 C37.6930412,43.0909794 39.7463918,42.8023196 41.7162371,42.0956186 C45.7260309,40.6525773 48.1541237,37.9873711 47.643299,36.5646907 C47.4659794,36.0667526 47.0051546,35.753866 46.4917526,35.556701 C45.3966495,36.3103093 44.092268,36.9726804 42.6273196,37.4981959 C40.8018041,38.1533505 38.9479381,38.4930412 37.2760309,38.4930412 C36.7966495,38.4930412 36.3322165,38.4646907 35.8837629,38.4100515 C35.7376289,38.3889175 35.5979381,38.3615979 35.4487113,38.3353093 C34.0574742,39.5020619 33.3306701,40.7744845 33.6203608,41.5940722 C33.8525773,42.2337629 34.7708763,42.7188144 36.0791237,42.8850515 Z" id="Shape" fill="#81B6B2"></path>
                            <path d="M44.0943299,82.8917526 C43.3927835,82.8989691 43.1162371,83.6829897 43.1162371,83.9979381 C43.1162371,84.3128866 44.5350515,85.0703608 45.3177835,85.4592784 C45.4904639,85.542268 46.728866,84.9252577 46.728866,84.4097938 C46.728866,83.8943299 44.7935567,82.8881443 44.0943299,82.8917526 Z" id="Shape" fill="#81B6B2"></path>
                            <path d="M56.3322165,80.4414948 C57.132732,79.7858247 57.4365979,78.1533505 57.4216495,76.9731959 C57.4141753,76.3275773 56.3969072,75.1551546 55.5755155,75.1551546 C54.7536082,75.1551546 54.3350515,75.7402062 53.8404639,76.2314433 C52.9304124,77.1298969 52.7175258,78.1876289 51.7574742,79.0201031 C51.431701,79.3051546 50.3780928,79.2409794 49.5840206,79.0404639 C48.7902062,78.8396907 47.6595361,77.1203608 46.9515464,75.985567 C46.1216495,74.6543814 45.2543814,74.8226804 44.2492268,75.5664948 C42.8652062,76.5935567 42.7332474,78.4546392 44.0056701,80.0180412 C45.6636598,82.3819588 53.2701031,84.1304124 56.3322165,80.4414948 Z" id="Shape" fill="#81B6B2"></path>
                            <path d="M56.5925258,82.8845361 C55.7260309,83.0087629 54.6255155,84.0814433 54.6255155,84.5871134 C54.6255155,85.0927835 55.5128866,85.5304124 55.7543814,85.4476804 C56.5378866,85.168299 58.4201031,84.2688144 58.4201031,83.8881443 C58.4201031,83.5074742 57.4572165,82.7613402 56.5925258,82.8845361 Z" id="Shape" fill="#81B6B2"></path>
                            <path d="M47.6451031,43.4930412 C47.4884021,43.0556701 47.0115979,42.6904639 46.307732,42.4507732 C45.2286082,43.1796392 43.9533505,43.8252577 42.5221649,44.339433 C40.6958763,44.9930412 38.8458763,45.3345361 37.1657216,45.3345361 C36.6935567,45.3345361 36.2280928,45.3079897 35.7837629,45.2515464 C35.692268,45.2402062 35.6110825,45.218299 35.5242268,45.2069588 C34.0886598,46.3837629 33.3247423,47.6822165 33.6221649,48.5219072 C33.8543814,49.1659794 34.7729381,49.6469072 36.0811856,49.8115979 C37.6953608,50.0154639 39.7484536,49.7265464 41.718299,49.0213918 C45.7280928,47.5811856 48.1559278,44.9154639 47.6451031,43.4930412 Z" id="Shape" fill="#81B6B2"></path>
                            <path d="M63.6061856,30.4337629 C63.364433,30.5 63.1018041,30.5551546 62.8414948,30.5981959 L62.5280928,31.0832474 C62.3582474,31.3448454 62.075,31.4994845 61.7654639,31.4994845 L61.7427835,31.4994845 C61.4293814,31.4917526 61.1386598,31.321134 60.9840206,31.0489691 C60.9234536,30.9466495 60.8479381,30.8074742 60.7574742,30.6453608 C59.7757732,30.553866 58.7525773,30.3224227 57.7425258,29.960567 C56.6533505,29.5703608 55.6528351,29.0520619 54.8069588,28.4543814 C53.8706186,28.6847938 53.1190722,29.1868557 52.9262887,29.7283505 C52.4149485,31.1494845 54.8445876,33.817268 58.8541237,35.2572165 C60.8252577,35.9613402 62.8755155,36.2510309 64.4873711,36.0463918 C65.7997423,35.8822165 66.7152062,35.3984536 66.9456186,34.7572165 C67.2891753,33.817268 66.2280928,31.9865979 63.6061856,30.4337629 Z" id="Shape" fill="#81B6B2"></path>
                            <path d="M88.1226804,0.128092784 L50.2688144,0.128092784 L12.4149485,0.128092784 C5.55824742,0.128092784 0,5.68634021 0,12.5430412 L0,87.4791237 C0,94.3358247 5.55824742,99.8940722 12.4149485,99.8940722 L50.2688144,99.8940722 L75.1721649,99.8940722 L75.1721649,86.943299 C75.1721649,80.0865979 80.7306701,74.5280928 87.5868557,74.5280928 L100.537629,74.5280928 L100.537629,12.5427835 C100.537629,5.68634021 94.9793814,0.128092784 88.1226804,0.128092784 Z M29.0121134,83.9033505 C28.8335052,83.9335052 28.6806701,84.0131443 28.5824742,83.9675258 C27.3685567,83.4221649 26.5481959,84.0051546 25.7175258,84.825 C25.5203608,85.0229381 24.7162371,84.9569588 24.5149485,84.7229381 C24.1685567,84.3340206 23.5984536,83.6636598 23.9306701,83.2350515 C25.981701,79.6353093 25.1371134,71.1984536 24.8956186,67.7747423 C24.657732,64.328866 24.1610825,60.8935567 23.6097938,57.4775773 C23.3917526,56.1280928 22.8425258,54.7863402 22.2128866,53.556701 C21.4662371,52.0899485 21.7221649,51.4420103 23.3257732,51.2061856 C23.9005155,51.1213918 24.4265464,50.7041237 24.9786082,50.4368557 C25.4603093,50.2048969 25.9688144,49.739433 26.4134021,49.793299 C26.9590206,49.8631443 27.6840206,50.2631443 27.8832474,50.7193299 C28.0407216,51.0636598 27.6365979,51.9793814 27.2412371,52.1886598 C25.7018041,53.0023196 25.6809278,54.2533505 25.8706186,55.6951031 C26.5757732,61.2005155 27.1863402,66.7216495 27.9793814,72.214433 C28.2115979,73.7886598 28.942268,80.5298969 29.4716495,82.0518041 C29.7407216,82.8195876 30.0476804,83.5451031 29.0121134,83.9033505 Z M61.9618557,79.4407216 C60.4971649,80.2592784 60.1685567,82.9072165 59.8378866,83.9716495 C59.6458763,84.6092784 59.3260309,87.0337629 57.4979381,87.0337629 L44.0012887,87.0337629 C41.4706186,87.0337629 41.1615979,84.5729381 40.989433,83.9110825 C40.589433,82.3724227 39.010567,79.7703608 37.4716495,78.7912371 C36.8358247,78.3871134 36.407732,76.7108247 35.6515464,75.8765464 C33.2126289,73.1994845 32.9010309,70.8435567 34.7690722,67.807732 C37.1043814,64.0131443 41.3275773,63.2688144 44.6435567,66.1244845 C45.8054124,67.1252577 46.8891753,68.2257732 47.9195876,69.3634021 C49.746134,71.3791237 51.1074742,71.3677835 52.9453608,69.3332474 C53.9667526,68.1945876 55.0636598,67.0989691 56.2206186,66.0953608 C59.4056701,63.332732 63.4492268,63.8840206 65.8090206,67.5103093 C66.6134021,68.7440722 66.964433,70.2768041 67.3420103,71.2247423 C68.1652062,74.256701 63.4262887,78.6213918 61.9618557,79.4407216 Z M76.8533505,53.5564433 C76.2262887,54.7860825 75.6752577,56.1278351 75.4600515,57.4773196 C74.9069588,60.893299 74.4180412,64.3286082 74.1744845,67.7744845 C73.9309278,71.1981959 73.121134,79.6353093 75.1731959,83.2347938 C75.5015464,83.6634021 74.9314433,84.3340206 74.5860825,84.7226804 C74.3840206,84.956701 73.5798969,85.0226804 73.3837629,84.8247423 C72.5510309,84.0030928 71.7337629,83.4219072 70.5216495,83.967268 C70.4234536,84.0128866 70.2724227,83.9332474 70.089433,83.9030928 C69.056701,83.5445876 69.360567,82.8193299 69.6306701,82.0510309 C70.1628866,80.5278351 70.8762887,79.0247423 71.1030928,77.4502577 C71.9033505,71.956701 72.4943299,61.1997423 73.2043814,55.6943299 C73.3873711,54.2523196 73.3649485,53.0015464 71.8298969,52.1878866 C71.4332474,51.9783505 71.0347938,51.0628866 71.1842784,50.7185567 C71.3863402,50.2623711 72.1113402,49.8623711 72.656701,49.7925258 C73.1002577,49.7386598 73.6100515,50.2041237 74.093299,50.4360825 C74.6443299,50.7033505 75.1695876,51.1206186 75.7471649,51.2054124 C77.3476804,51.4417526 77.6007732,52.0896907 76.8533505,53.5564433 Z M77.5404639,49.6152062 C77.3912371,49.8778351 76.6154639,50.1007732 76.3811856,49.9456186 C75.4069588,49.3018041 74.489433,48.8920103 73.4020619,49.6631443 C73.3154639,49.7226804 73.1528351,49.6765464 72.9698454,49.6842784 C71.8842784,49.5301546 72.0427835,48.7615979 72.1618557,47.9536082 C72.3865979,46.3579897 72.7940722,44.743299 72.7110825,43.1556701 C72.4221649,37.614433 71.9481959,32.0809278 71.5708763,26.543299 C71.4688144,25.0927835 71.2064433,23.8646907 69.543299,23.3664948 C69.2221649,23.2724227 68.8185567,22.7822165 68.671134,22.3945876 L66.6,24.7257732 L65.6845361,26.1523196 C66.0925258,26.9541237 66.1945876,27.7739691 65.9224227,28.5337629 C65.8695876,28.6822165 65.8018041,28.8252577 65.7224227,28.9631443 C68.5881443,30.9518041 69.9438144,33.4677835 69.196134,35.5574742 C68.9280928,36.3043814 68.418299,36.9234536 67.7141753,37.3989691 C69.2698454,39.0502577 69.8608247,40.8427835 69.3056701,42.3963918 C69.0206186,43.1835052 68.4713918,43.8309278 67.7048969,44.3203608 C69.2546392,45.9675258 69.860567,47.7708763 69.3056701,49.321134 C68.7469072,50.8695876 67.1819588,51.882732 64.9028351,52.1726804 C64.8935567,52.1726804 64.8804124,52.1726804 64.8690722,52.1742268 C65.7958763,53.9219072 65.9110825,55.5945876 65.1293814,56.8724227 C64.3649485,58.1324742 62.8904639,58.8090206 60.9384021,58.8090206 C60.7136598,58.8090206 60.4835052,58.8020619 60.2474227,58.7819588 C58.6409794,58.6585052 56.8626289,58.121134 55.1311856,57.2507732 C55.0087629,57.857732 54.6914948,58.3958763 54.2554124,58.8 C54.5615979,59.2306701 54.7463918,59.7564433 54.7463918,60.3273196 L54.7463918,60.7654639 C54.7463918,61.5796392 54.3724227,62.3064433 53.7951031,62.7935567 C53.9497423,63.1018041 54.0458763,63.4505155 54.0458763,63.8213918 L54.0458763,64.1680412 C54.0458763,64.9409794 53.6662371,65.6216495 53.0793814,66.0435567 C53.1453608,66.1822165 53.1868557,66.3389175 53.1868557,66.5030928 L53.1868557,67.5025773 C53.1868557,68.5551546 52.3335052,69.4141753 51.2773196,69.4141753 L49.4159794,69.4141753 C48.8110825,69.4141753 48.3219072,68.9252577 48.3219072,68.3219072 C48.3219072,67.7167526 48.8110825,67.2283505 49.4159794,67.2283505 L51,67.2283505 L51,66.5051546 C51,66.4992268 51.003866,66.4938144 51.003866,66.4829897 L48.9546392,66.4829897 C48.3494845,66.4829897 47.8641753,65.9943299 47.8641753,65.3891753 C47.8641753,64.7840206 48.3512887,64.2969072 48.9546392,64.2969072 L51.7342784,64.2969072 C51.8033505,64.2969072 51.8579897,64.2417526 51.8579897,64.1698454 L51.8579897,63.8234536 C51.8579897,63.7543814 51.8033505,63.6958763 51.7342784,63.6958763 L48.9546392,63.6958763 C48.9448454,63.6958763 48.9360825,63.6927835 48.9262887,63.692268 C48.8963918,63.6945876 48.8677835,63.7015464 48.8371134,63.7015464 C48.1497423,63.7015464 47.592268,63.1443299 47.592268,62.456701 C47.592268,61.7693299 48.1497423,61.2115979 48.8371134,61.2115979 C48.8652062,61.2115979 48.8914948,61.2180412 48.9190722,61.2203608 L52.1033505,61.2203608 C52.3523196,61.2203608 52.5525773,61.0167526 52.5525773,60.7667526 L52.5525773,60.328866 C52.5525773,60.0786082 52.3505155,59.8760309 52.1033505,59.8760309 L48.5786082,59.8760309 C48.5528351,59.8760309 48.5283505,59.8716495 48.5033505,59.8703608 C48.4945876,59.8703608 48.4868557,59.8729381 48.4780928,59.8729381 C47.7837629,59.8729381 47.2208763,59.3097938 47.2208763,58.6159794 C47.2208763,58.4873711 47.2458763,58.3659794 47.281701,58.2489691 C47.285567,58.2329897 47.2914948,58.2180412 47.296134,58.2023196 C47.3090206,58.1652062 47.3213918,58.128866 47.3376289,58.0935567 C47.3613402,58.0384021 47.3902062,57.9863402 47.4231959,57.9358247 C47.4311856,57.9231959 47.4389175,57.910567 47.4474227,57.8987113 C47.4780928,57.8556701 47.5118557,57.8154639 47.5481959,57.7762887 C47.5726804,57.7492268 47.5974227,57.7229381 47.6239691,57.6976804 C47.6404639,57.6832474 47.6574742,57.6698454 47.6747423,57.6561856 C47.8378866,57.5193299 48.032732,57.421134 48.2505155,57.381701 C48.3257732,57.3664948 48.4020619,57.3582474 48.4783505,57.3582474 L52.3358247,57.3631443 C52.6966495,57.3631443 52.9909794,57.0713918 52.9909794,56.7079897 C52.9909794,56.7079897 52.9878866,56.389433 52.9878866,56.1783505 C52.9878866,55.967268 52.8590206,55.5592784 52.3907216,55.5592784 C51.9224227,55.5592784 48.3497423,55.5548969 48.3497423,55.5548969 C48.3353093,55.5548969 48.3185567,55.5512887 48.3054124,55.5494845 C47.8466495,55.8976804 47.367268,56.2335052 46.8592784,56.5414948 C44.725,57.8368557 42.4492268,58.6353093 40.4386598,58.7873711 C40.2025773,58.8069588 39.9752577,58.8146907 39.7466495,58.8146907 C37.7966495,58.8146907 36.3193299,58.1373711 35.5556701,56.8773196 C34.7786082,55.5971649 34.8891753,53.9278351 35.8152062,52.1796392 C35.8069588,52.1775773 35.7953608,52.1775773 35.7858247,52.1775773 C33.5005155,51.8876289 31.9384021,50.8747423 31.3814433,49.3257732 C30.8255155,47.7760309 31.4306701,45.9703608 32.9822165,44.325 C32.2149485,43.8360825 31.6657216,43.1907216 31.3814433,42.4012887 C30.8255155,40.8458763 31.418299,39.0554124 32.9729381,37.4041237 C32.2695876,36.9293814 31.7592784,36.3097938 31.4938144,35.5623711 C30.7425258,33.4726804 32.0989691,30.9569588 34.9636598,28.968299 C34.8891753,28.831701 34.8154639,28.6858247 34.7628866,28.5386598 C34.6448454,28.2025773 34.6041237,27.8546392 34.6239691,27.5048969 L32.8456186,24.7306701 L30.4365979,22.0195876 C30.4404639,22.031701 30.4479381,22.043299 30.4497423,22.0564433 C30.5309278,22.4255155 29.9572165,23.2456186 29.5296392,23.3731959 C27.8636598,23.8721649 27.6048969,25.0997423 27.5020619,26.5494845 C27.1234536,32.0873711 26.6494845,37.6206186 26.3618557,43.1626289 C26.2809278,44.7502577 26.6845361,46.3664948 26.9103093,47.9615979 C27.0283505,48.7698454 27.1889175,49.5347938 26.1002577,49.6917526 C25.9188144,49.6853093 25.756701,49.7311856 25.6659794,49.6698454 C24.5814433,48.8987113 23.6667526,49.3085052 22.6925258,49.9523196 C22.460567,50.1069588 21.6835052,49.8840206 21.5306701,49.6216495 C21.2654639,49.1716495 20.8350515,48.3994845 21.2466495,48.0466495 C23.9548969,44.9126289 23.7688144,41.6170103 24.1963918,38.2079897 C24.6314433,34.7804124 24.8126289,31.3146907 24.9363402,27.8600515 C24.9871134,26.4912371 24.7090206,25.0664948 24.3296392,23.7407216 C23.8832474,22.1559278 24.260567,21.5677835 25.8786082,21.6510309 C26.4600515,21.6801546 27.057732,21.3726804 27.6512887,21.2175258 C28.1716495,21.082732 28.7585052,20.7270619 29.1863402,20.868299 C29.321134,20.9149485 29.4685567,20.9842784 29.6072165,21.0731959 C29.5703608,21.0131443 29.5384021,20.9536082 29.5146907,20.8909794 C28.9332474,19.3193299 28.9793814,18.0371134 29.6420103,17.0775773 C30.5680412,15.7479381 32.3623711,15.5484536 33.3476804,15.5484536 C33.6556701,15.5484536 33.8564433,15.5670103 33.8564433,15.5670103 C33.8914948,15.571134 33.9319588,15.5786082 33.9726804,15.5871134 C34.6164948,15.7371134 40.3056701,17.1255155 41.6592784,20.0481959 C41.8773196,20.5260309 41.9564433,21.1100515 41.9358247,21.7559278 C42.6796392,21.6007732 43.4103093,21.5139175 44.1059278,21.5139175 C45.1347938,21.5139175 46.0108247,21.6881443 46.7159794,22.0087629 L46.7159794,21.1891753 C46.7159794,20.1273196 47.3871134,19.2291237 48.3208763,18.8832474 C48.4716495,18.4595361 48.8737113,18.1520619 49.3476804,18.1520619 L50.9306701,18.1520619 L50.9306701,17.4291237 C50.9306701,17.4231959 50.9342784,17.4154639 50.9342784,17.4079897 L48.8871134,17.4079897 C48.2840206,17.4079897 47.7966495,16.9193299 47.7966495,16.3141753 C47.7966495,15.7087629 48.285567,15.2201031 48.8871134,15.2201031 L51.6670103,15.2201031 C51.7368557,15.2201031 51.7925258,15.1654639 51.7925258,15.0956186 L51.7925258,14.4193299 C51.7925258,14.3515464 51.7368557,14.2958763 51.6670103,14.2958763 C51.6670103,14.2958763 48.2528351,14.4677835 48.0515464,14.2244845 C47.682732,14.0474227 47.4260309,13.6729381 47.4260309,13.2378866 C47.4260309,12.6324742 47.9149485,12.1438144 48.5159794,12.1438144 L52.0396907,12.1438144 C54.1221649,12.3002577 53.9804124,14.3752577 53.9804124,14.7497423 L53.9804124,15.0956186 C53.9804124,15.8677835 53.5992268,16.5481959 53.0139175,16.971134 C53.081701,17.1095361 53.1234536,17.2664948 53.1234536,17.4306701 L53.1234536,18.4301546 C53.1234536,18.7304124 53.0479381,19.0108247 52.9213918,19.2657216 C53.4858247,19.7154639 53.8520619,20.4095361 53.8520619,21.1930412 L53.8520619,22.0608247 C54.5734536,21.7010309 55.4984536,21.5121134 56.5858247,21.5121134 C56.8878866,21.5121134 57.1935567,21.5273196 57.5108247,21.5546392 C57.5108247,20.9886598 57.5938144,20.4742268 57.7938144,20.0445876 C59.1456186,17.1219072 64.835567,15.735567 65.4775773,15.5835052 C65.5154639,15.5747423 65.5548969,15.5693299 65.5945876,15.5636598 C65.5945876,15.5636598 65.7945876,15.5445876 66.1061856,15.5445876 C67.0899485,15.5445876 68.8793814,15.7440722 69.8064433,17.0739691 C70.467268,18.0268041 70.5141753,19.2987113 69.9515464,20.8528351 C70.3724227,20.7564433 70.9335052,21.0845361 71.4319588,21.2139175 C72.0247423,21.3690722 72.621134,21.6768041 73.2025773,21.6471649 C74.8203608,21.5659794 75.196134,22.1523196 74.7469072,23.7371134 C74.3729381,25.0634021 74.0953608,26.485567 74.1427835,27.8561856 C74.2634021,31.3108247 74.4487113,34.7770619 74.8845361,38.2043814 C75.3056701,41.6092784 75.1131443,44.907732 77.8278351,48.0384021 C78.2386598,48.3948454 77.8025773,49.1641753 77.5404639,49.6152062 Z" id="Shape" fill="#81B6B2"></path>
                            <path d="M65.1615979,45.2056701 C65.0729381,45.2167526 64.9917526,45.2381443 64.9028351,45.2497423 C64.4574742,45.3064433 63.993299,45.3332474 63.5175258,45.3332474 C61.8430412,45.3332474 59.9873711,44.9909794 58.1636598,44.3381443 C56.728866,43.8234536 55.4600515,43.1798969 54.3804124,42.4489691 C53.6742268,42.6907216 53.1948454,43.0546392 53.0363402,43.4909794 C52.5286082,44.9136598 54.9543814,47.5793814 58.9680412,49.0198454 C60.9389175,49.7268041 62.9909794,50.0139175 64.6012887,49.8095361 C65.9113402,49.6456186 66.8309278,49.1641753 67.0592784,48.5201031 C67.3610825,47.6801546 66.5945876,46.3824742 65.1615979,45.2056701 Z" id="Shape" fill="#81B6B2"></path>
                            <path d="M65.2335052,38.335567 C65.0842784,38.3618557 64.9445876,38.3891753 64.7935567,38.4103093 C64.35,38.4667526 63.881701,38.493299 63.403866,38.493299 C61.7311856,38.493299 59.8811856,38.1536082 58.05,37.4984536 C56.5850515,36.9729381 55.2824742,36.3090206 54.1891753,35.557732 C53.6737113,35.7569588 53.2152062,36.0693299 53.0319588,36.5649485 C52.5260309,37.9876289 54.95,40.6528351 58.9654639,42.0958763 C60.9345361,42.8005155 62.9884021,43.0909794 64.5987113,42.8853093 C65.9069588,42.7188144 66.8283505,42.2340206 67.0585052,41.5943299 C67.3533505,40.7747423 66.6286082,39.5023196 65.2335052,38.335567 Z" id="Shape" fill="#81B6B2"></path>
                            <path d="M58.1652062,51.2613402 C55.9716495,50.4773196 54.1536082,49.3775773 52.8414948,48.1518041 C52.964433,49.2636598 52.6283505,50.5216495 51.825,51.8322165 C52.6793814,52.8012887 53.8046392,53.7350515 55.0693299,54.5059278 C56.8608247,55.592268 58.8092784,56.2858247 60.428866,56.4082474 C61.7466495,56.5069588 62.739433,56.2195876 63.0981959,55.6368557 C63.5399485,54.906701 63.1170103,53.5721649 62.0257732,52.1708763 C60.7760309,52.031701 59.4623711,51.7280928 58.1652062,51.2613402 Z" id="Shape" fill="#81B6B2"></path>
                            <path d="M58.3332474,28.3115979 C58.8054124,28.4798969 59.2773196,28.6072165 59.7456186,28.7121134 C58.9865979,27.1670103 58.1257732,25.1582474 57.7293814,23.3466495 C57.3347938,23.2948454 56.9479381,23.2600515 56.5814433,23.2600515 C55.2185567,23.2600515 54.1989691,23.6510309 53.9798969,24.253866 C53.8139175,24.7219072 54.1103093,25.4273196 54.7731959,26.1304124 C55.5920103,26.9971649 56.8909794,27.7920103 58.3332474,28.3115979 Z" id="Shape" fill="#81B6B2"></path>
                            <path d="M47.8407216,48.1518041 C46.5324742,49.3801546 44.710567,50.478866 42.5224227,51.2613402 C41.2216495,51.7280928 39.9090206,52.031701 38.6582474,52.1706186 C37.5695876,53.5721649 37.142268,54.9041237 37.5850515,55.6365979 C37.9427835,56.2193299 38.9365979,56.506701 40.2590206,56.4079897 C41.875,56.285567 43.8268041,55.5920103 45.6157216,54.5056701 C46.881701,53.7363402 48.0048969,52.8030928 48.8574742,51.8319588 C48.056701,50.5216495 47.7208763,49.2636598 47.8407216,48.1518041 Z" id="Shape" fill="#81B6B2"></path>
                            <path d="M75.1721649,86.943299 L75.1721649,99.8938144 L100.537629,74.5280928 L87.5868557,74.5280928 C80.7309278,74.5280928 75.1721649,80.0865979 75.1721649,86.943299 Z" id="Shape" fill="#5A9794"></path>
                            <path d="M65.8092784,67.5103093 C63.4494845,63.8840206 59.4059278,63.332732 56.2208763,66.0953608 C55.0639175,67.0992268 53.9667526,68.1948454 52.9456186,69.3332474 C51.107732,71.3680412 49.7466495,71.3791237 47.9198454,69.3634021 C46.8891753,68.2257732 45.8056701,67.125 44.6438144,66.1244845 C41.3280928,63.2688144 37.1046392,64.0134021 34.7693299,67.807732 C32.9012887,70.843299 33.2126289,73.1994845 35.6518041,75.8765464 C36.4079897,76.710567 36.8360825,78.3868557 37.4719072,78.7912371 C39.0108247,79.7703608 40.5896907,82.3726804 40.9896907,83.9110825 C41.1618557,84.5729381 41.4708763,87.0337629 44.0015464,87.0337629 L57.4981959,87.0337629 C59.3260309,87.0337629 59.646134,84.6092784 59.8381443,83.9716495 C60.1685567,82.9072165 60.4974227,80.2592784 61.9621134,79.4407216 C63.4265464,78.6213918 68.1654639,74.256701 67.342268,71.2247423 C66.9646907,70.2768041 66.6136598,68.7440722 65.8092784,67.5103093 Z M45.3175258,85.4592784 C44.5347938,85.0703608 43.1159794,84.3128866 43.1159794,83.9979381 C43.1159794,83.6829897 43.3925258,82.8989691 44.0940722,82.8917526 C44.7935567,82.8881443 46.7283505,83.8943299 46.7283505,84.4097938 C46.7283505,84.9252577 45.4902062,85.542268 45.3175258,85.4592784 Z M44.0054124,80.018299 C42.7329897,78.4548969 42.8649485,76.5938144 44.2489691,75.5667526 C45.2541237,74.8229381 46.1216495,74.6546392 46.9512887,75.9858247 C47.6592784,77.1203608 48.7899485,78.8396907 49.5837629,79.0407216 C50.3778351,79.2412371 51.4314433,79.3054124 51.7572165,79.0203608 C52.717268,78.1878866 52.9301546,77.1301546 53.8402062,76.231701 C54.3347938,75.7404639 54.7533505,75.1554124 55.5752577,75.1554124 C56.3969072,75.1554124 57.4139175,76.3278351 57.4213918,76.9734536 C57.4365979,78.1536082 57.1324742,79.7860825 56.3319588,80.4417526 C53.2701031,84.1304124 45.6636598,82.3819588 44.0054124,80.018299 Z M55.7543814,85.4479381 C55.5126289,85.5306701 54.6255155,85.0930412 54.6255155,84.5873711 C54.6255155,84.0814433 55.7262887,83.0090206 56.5925258,82.8847938 C57.4572165,82.7613402 58.4201031,83.5079897 58.4201031,83.8886598 C58.4201031,84.2693299 56.5378866,85.1685567 55.7543814,85.4479381 Z" id="Shape" fill="#F7F1E6"></path>
                            <path d="M27.9793814,72.2141753 C27.1863402,66.7213918 26.5757732,61.2005155 25.8706186,55.6948454 C25.6809278,54.2528351 25.7018041,53.0020619 27.2412371,52.1884021 C27.6365979,51.978866 28.0407216,51.0634021 27.8832474,50.7190722 C27.6840206,50.2628866 26.9592784,49.8628866 26.4134021,49.7930412 C25.9688144,49.7391753 25.4603093,50.2046392 24.9786082,50.4365979 C24.4265464,50.703866 23.9005155,51.121134 23.3257732,51.2059278 C21.7221649,51.4417526 21.4662371,52.0896907 22.2128866,53.5564433 C22.8425258,54.7860825 23.3917526,56.1278351 23.6097938,57.4773196 C24.1613402,60.893299 24.657732,64.3286082 24.8956186,67.7744845 C25.1373711,71.1981959 25.981701,79.6353093 23.9306701,83.2347938 C23.5984536,83.6634021 24.1685567,84.3340206 24.5149485,84.7226804 C24.7162371,84.956701 25.5203608,85.0226804 25.7175258,84.8247423 C26.5481959,84.0046392 27.3685567,83.4219072 28.5824742,83.967268 C28.6806701,84.0128866 28.8335052,83.9332474 29.0121134,83.9030928 C30.0476804,83.5445876 29.7407216,82.8193299 29.4716495,82.0510309 C28.942268,80.5296392 28.2115979,73.7884021 27.9793814,72.2141753 Z" id="Shape" fill="#F7F1E6"></path>
                            <path d="M75.7469072,51.2059278 C75.1693299,51.121134 74.6443299,50.703866 74.0930412,50.4365979 C73.6097938,50.2046392 73.1,49.7391753 72.6564433,49.7930412 C72.1108247,49.8628866 71.3858247,50.2628866 71.1840206,50.7190722 C71.0345361,51.0634021 71.4329897,51.9791237 71.8296392,52.1884021 C73.364433,53.0020619 73.3868557,54.2530928 73.2041237,55.6948454 C72.4943299,61.2002577 71.9033505,71.9572165 71.1028351,77.4507732 C70.8762887,79.025 70.1626289,80.5280928 69.6304124,82.0515464 C69.3603093,82.8195876 69.0561856,83.5451031 70.0891753,83.9036082 C70.2721649,83.9337629 70.4231959,84.0134021 70.5213918,83.9677835 C71.7335052,83.4224227 72.5507732,84.0036082 73.3835052,84.8252577 C73.5796392,85.0231959 74.3837629,84.9572165 74.5858247,84.7231959 C74.9311856,84.3342784 75.5012887,83.6639175 75.1729381,83.2353093 C73.1208763,79.635567 73.9309278,71.1987113 74.1742268,67.775 C74.4177835,64.3291237 74.906701,60.8938144 75.4597938,57.4778351 C75.675,56.1283505 76.2262887,54.7865979 76.8530928,53.5569588 C77.6007732,52.0896907 77.3476804,51.4417526 75.7469072,51.2059278 Z" id="Shape" fill="#F7F1E6"></path>
                            <path d="M74.8840206,38.2051546 C74.4481959,34.7775773 74.2628866,31.3115979 74.142268,27.8569588 C74.0948454,26.4863402 74.3724227,25.0639175 74.7463918,23.7378866 C75.1956186,22.1530928 74.8198454,21.5664948 73.2020619,21.6479381 C72.6206186,21.6775773 72.0242268,21.3698454 71.4314433,21.2146907 C70.9329897,21.0853093 70.3721649,20.7572165 69.9510309,20.8536082 C70.5136598,19.2994845 70.4667526,18.0275773 69.8059278,17.0747423 C68.878866,15.7451031 67.0891753,15.5453608 66.1056701,15.5453608 C65.7943299,15.5453608 65.5940722,15.564433 65.5940722,15.564433 C65.5543814,15.5701031 65.5149485,15.5755155 65.4770619,15.5842784 C64.8350515,15.7363402 59.1453608,17.1226804 57.793299,20.0453608 C57.593299,20.475 57.5103093,20.989433 57.5103093,21.5554124 C57.1930412,21.5280928 56.8873711,21.5128866 56.5853093,21.5128866 C55.4979381,21.5128866 54.5729381,21.7018041 53.8515464,22.0615979 L53.8515464,21.1938144 C53.8515464,20.4103093 53.485567,19.7164948 52.9208763,19.2664948 C53.0474227,19.0115979 53.1229381,18.7311856 53.1229381,18.4309278 L53.1229381,17.4314433 C53.1229381,17.267268 53.0811856,17.1103093 53.0134021,16.9719072 C53.5987113,16.5487113 53.9798969,15.8685567 53.9798969,15.0963918 L53.9798969,14.7505155 C53.9798969,14.3760309 54.1216495,12.3010309 52.0391753,12.1445876 L48.5154639,12.1445876 C47.914433,12.1445876 47.4255155,12.6332474 47.4255155,13.2386598 C47.4255155,13.6737113 47.6822165,14.0484536 48.0510309,14.2252577 C48.2523196,14.4685567 51.6664948,14.2966495 51.6664948,14.2966495 C51.7363402,14.2966495 51.7920103,14.3523196 51.7920103,14.4201031 L51.7920103,15.0963918 C51.7920103,15.1662371 51.7363402,15.2208763 51.6664948,15.2208763 L48.8865979,15.2208763 C48.2853093,15.2208763 47.796134,15.7095361 47.796134,16.3149485 C47.796134,16.9201031 48.2835052,17.4087629 48.8865979,17.4087629 L50.9337629,17.4087629 C50.9337629,17.4162371 50.9301546,17.4239691 50.9301546,17.4298969 L50.9301546,18.1528351 L49.3471649,18.1528351 C48.8731959,18.1528351 48.471134,18.4603093 48.3203608,18.8840206 C47.3865979,19.2298969 46.7154639,20.1280928 46.7154639,21.1899485 L46.7154639,22.0095361 C46.0103093,21.6889175 45.1342784,21.5146907 44.1054124,21.5146907 C43.4097938,21.5146907 42.6791237,21.6018041 41.9353093,21.756701 C41.9561856,21.1108247 41.8768041,20.5268041 41.6587629,20.0489691 C40.3051546,17.1262887 34.6159794,15.7378866 33.9721649,15.5878866 C33.9314433,15.5793814 33.8912371,15.5716495 33.8559278,15.5677835 C33.8559278,15.5677835 33.6551546,15.5492268 33.3471649,15.5492268 C32.3618557,15.5492268 30.5675258,15.7484536 29.6414948,17.0783505 C28.978866,18.0378866 28.932732,19.3201031 29.5141753,20.8917526 C29.5378866,20.9543814 29.5698454,21.0139175 29.606701,21.0739691 C29.4680412,20.9850515 29.3206186,20.9157216 29.1858247,20.8690722 C28.7582474,20.7278351 28.171134,21.0835052 27.6507732,21.218299 C27.0572165,21.3734536 26.4595361,21.6809278 25.8780928,21.6518041 C24.2603093,21.5688144 23.882732,22.156701 24.3291237,23.7414948 C24.7085052,25.0675258 24.9868557,26.492268 24.9358247,27.8608247 C24.8121134,31.3154639 24.6309278,34.7814433 24.1958763,38.2087629 C23.768299,41.6177835 23.9543814,44.9134021 21.246134,48.0474227 C20.8345361,48.4002577 21.2649485,49.1724227 21.5301546,49.6224227 C21.6829897,49.8850515 22.4597938,50.107732 22.6920103,49.9530928 C23.6662371,49.3092784 24.5809278,48.8994845 25.6654639,49.6706186 C25.7561856,49.7319588 25.918299,49.6860825 26.0997423,49.6925258 C27.1881443,49.5358247 27.0278351,48.7706186 26.9097938,47.9623711 C26.6842784,46.367268 26.2804124,44.7510309 26.3613402,43.1634021 C26.6492268,37.6213918 27.1229381,32.0881443 27.5015464,26.5502577 C27.6043814,25.1005155 27.8631443,23.8726804 29.5291237,23.3739691 C29.956701,23.2463918 30.5304124,22.4260309 30.4492268,22.0572165 C30.4474227,22.0440722 30.4399485,22.0324742 30.4360825,22.0203608 L32.8451031,24.7314433 L34.6234536,27.5056701 C34.6036082,27.8551546 34.6443299,28.2033505 34.7623711,28.539433 C34.8152062,28.6865979 34.8886598,28.8324742 34.9631443,28.9690722 C32.0984536,30.957732 30.7420103,33.4734536 31.493299,35.5631443 C31.7587629,36.3103093 32.2693299,36.9301546 32.9724227,37.4048969 C31.4177835,39.0559278 30.825,40.8466495 31.3809278,42.4020619 C31.6652062,43.1914948 32.2146907,43.8365979 32.981701,44.3257732 C31.4298969,45.9713918 30.8247423,47.7770619 31.3809278,49.3265464 C31.9378866,50.8757732 33.5,51.8884021 35.7853093,52.1783505 C35.7948454,52.1783505 35.8064433,52.1783505 35.8146907,52.1804124 C34.8886598,53.9283505 34.7780928,55.5979381 35.5551546,56.8780928 C36.3188144,58.1381443 37.7958763,58.8154639 39.746134,58.8154639 C39.9747423,58.8154639 40.2023196,58.807732 40.4381443,58.7881443 C42.4487113,58.6360825 44.7244845,57.8376289 46.8587629,56.542268 C47.3667526,56.2345361 47.846134,55.8984536 48.3048969,55.5502577 C48.3180412,55.5520619 48.3350515,55.5556701 48.3492268,55.5556701 C48.3492268,55.5556701 51.9216495,55.5600515 52.3902062,55.5600515 C52.8585052,55.5600515 52.9873711,55.968299 52.9873711,56.1791237 C52.9873711,56.3899485 52.9904639,56.7087629 52.9904639,56.7087629 C52.9904639,57.0721649 52.696134,57.3639175 52.3353093,57.3639175 L48.4778351,57.3590206 C48.4018041,57.3590206 48.3252577,57.367268 48.25,57.3824742 C48.0322165,57.4219072 47.8373711,57.5201031 47.6742268,57.6569588 C47.6572165,57.6706186 47.6399485,57.6840206 47.6234536,57.6984536 C47.5969072,57.7237113 47.5721649,57.7497423 47.5476804,57.7770619 C47.5113402,57.8159794 47.4778351,57.8564433 47.4469072,57.8994845 C47.4384021,57.9113402 47.4306701,57.9239691 47.4226804,57.9365979 C47.3896907,57.9871134 47.3608247,58.0391753 47.3371134,58.0943299 C47.3208763,58.1296392 47.3085052,58.1659794 47.2956186,58.2030928 C47.2909794,58.2188144 47.2850515,58.2337629 47.2811856,58.2497423 C47.2453608,58.3667526 47.2203608,58.4881443 47.2203608,58.6167526 C47.2203608,59.310567 47.7835052,59.8737113 48.4775773,59.8737113 C48.4863402,59.8737113 48.4940722,59.871134 48.5028351,59.871134 C48.5280928,59.8726804 48.5525773,59.8768041 48.5780928,59.8768041 L52.1028351,59.8768041 C52.35,59.8768041 52.5520619,60.0793814 52.5520619,60.3296392 L52.5520619,60.7675258 C52.5520619,61.0175258 52.3518041,61.221134 52.1028351,61.221134 L48.9185567,61.221134 C48.8909794,61.2188144 48.8649485,61.2123711 48.8365979,61.2123711 C48.1492268,61.2123711 47.5917526,61.7701031 47.5917526,62.4574742 C47.5917526,63.1451031 48.1492268,63.7023196 48.8365979,63.7023196 C48.867268,63.7023196 48.8956186,63.6953608 48.9257732,63.6930412 C48.935567,63.6935567 48.9443299,63.6966495 48.9541237,63.6966495 L51.7337629,63.6966495 C51.8028351,63.6966495 51.8574742,63.7554124 51.8574742,63.8242268 L51.8574742,64.1706186 C51.8574742,64.2425258 51.8028351,64.2976804 51.7337629,64.2976804 L48.9541237,64.2976804 C48.3507732,64.2976804 47.8636598,64.7850515 47.8636598,65.3899485 C47.8636598,65.9953608 48.3489691,66.4837629 48.9541237,66.4837629 L51.0033505,66.4837629 C51.0033505,66.4945876 50.9994845,66.5 50.9994845,66.5059278 L50.9994845,67.2291237 L49.4154639,67.2291237 C48.810567,67.2291237 48.3213918,67.7177835 48.3213918,68.3226804 C48.3213918,68.9260309 48.810567,69.4149485 49.4154639,69.4149485 L51.2768041,69.4149485 C52.3332474,69.4149485 53.1863402,68.5559278 53.1863402,67.5033505 L53.1863402,66.503866 C53.1863402,66.3396907 53.1448454,66.1829897 53.078866,66.0443299 C53.6657216,65.6221649 54.0453608,64.9417526 54.0453608,64.1688144 L54.0453608,63.8221649 C54.0453608,63.4512887 53.9492268,63.1025773 53.7945876,62.7943299 C54.3721649,62.3069588 54.7458763,61.5804124 54.7458763,60.7662371 L54.7458763,60.3278351 C54.7458763,59.7569588 54.5608247,59.2311856 54.2548969,58.8005155 C54.6912371,58.3966495 55.0082474,57.8585052 55.1306701,57.2512887 C56.8621134,58.1216495 58.6404639,58.6590206 60.2469072,58.7824742 C60.4829897,58.8025773 60.7131443,58.8095361 60.9378866,58.8095361 C62.8899485,58.8095361 64.3641753,58.1329897 65.128866,56.8729381 C65.910567,55.5948454 65.7953608,53.9224227 64.8685567,52.1747423 C64.8796392,52.1731959 64.8930412,52.1731959 64.9023196,52.1731959 C67.1811856,51.8832474 68.746134,50.8698454 69.3051546,49.3216495 C69.8600515,47.771134 69.2541237,45.9677835 67.7043814,44.3208763 C68.4708763,43.831701 69.0201031,43.1840206 69.3051546,42.3969072 C69.8600515,40.8435567 69.2690722,39.0510309 67.7136598,37.3994845 C68.4177835,36.9239691 68.9275773,36.3051546 69.1956186,35.5579897 C69.943299,33.468299 68.5876289,30.9523196 65.7219072,28.9636598 C65.8012887,28.8257732 65.8693299,28.682732 65.9219072,28.5342784 C66.1940722,27.7744845 66.0920103,26.9546392 65.6840206,26.1528351 L66.5994845,24.7262887 L68.6706186,22.3951031 C68.8180412,22.7829897 69.2216495,23.2729381 69.5427835,23.3670103 C71.2059278,23.8654639 71.468299,25.093299 71.5703608,26.5438144 C71.9476804,32.0814433 72.4216495,37.6149485 72.710567,43.1561856 C72.7935567,44.7438144 72.3858247,46.3585052 72.1613402,47.9541237 C72.042268,48.7621134 71.8837629,49.5306701 72.9693299,49.6847938 C73.1523196,49.6770619 73.3146907,49.7231959 73.4015464,49.6636598 C74.4889175,48.8925258 75.4064433,49.3023196 76.3806701,49.946134 C76.6146907,50.1012887 77.3904639,49.8780928 77.5399485,49.6157216 C77.8023196,49.1646907 78.2381443,48.3953608 77.8268041,48.0396907 C75.1126289,44.9085052 75.3051546,41.6100515 74.8840206,38.2051546 Z M41.6569588,23.6061856 C42.5018041,23.3778351 43.3324742,23.257732 44.1,23.257732 C45.4646907,23.257732 46.4850515,23.6466495 46.7025773,24.2518041 C46.8706186,24.7216495 46.5768041,25.4252577 45.9113402,26.1301546 C45.0920103,26.9966495 43.7951031,27.7914948 42.3510309,28.3113402 C41.4157216,28.6479381 40.4752577,28.8430412 39.5974227,28.9079897 C40.3458763,27.4141753 41.2162371,25.4273196 41.6569588,23.6061856 Z M36.6551546,30.6899485 L36.9146907,31.0814433 C37.075,31.3412371 37.3649485,31.4976804 37.6726804,31.4976804 L37.6914948,31.4976804 C38.0087629,31.4904639 38.2966495,31.3193299 38.4512887,31.0476804 C38.5072165,30.9520619 38.578866,30.8268041 38.6600515,30.6775773 C38.7760309,30.6822165 38.8865979,30.6899485 39.0043814,30.6899485 C40.2427835,30.6899485 41.6023196,30.4358247 42.9360825,29.9590206 C44.0260309,29.568299 45.0257732,29.0518041 45.8726804,28.4528351 C46.8097938,28.6824742 47.5585052,29.1850515 47.7518041,29.7268041 C48.2623711,31.1474227 45.835567,33.8149485 41.8247423,35.2554124 C39.8548969,35.9613402 37.8018041,36.2489691 36.1914948,36.0448454 C34.8804124,35.8822165 33.9628866,35.3984536 33.7324742,34.7548969 C33.4154639,33.8698454 34.3453608,32.185567 36.6551546,30.6899485 Z M35.4487113,38.335567 C35.5979381,38.3618557 35.7376289,38.3891753 35.8837629,38.4103093 C36.3322165,38.4649485 36.7966495,38.493299 37.2760309,38.493299 C38.9479381,38.493299 40.8018041,38.1536082 42.6273196,37.4984536 C44.092268,36.9729381 45.3966495,36.310567 46.4917526,35.5569588 C47.0051546,35.7543814 47.4659794,36.0670103 47.643299,36.5649485 C48.1541237,37.9876289 45.7262887,40.6528351 41.7162371,42.0958763 C39.746134,42.8023196 37.6930412,43.0909794 36.0791237,42.8853093 C34.7708763,42.7188144 33.8523196,42.2340206 33.6201031,41.5943299 C33.3306701,40.7747423 34.0574742,39.5023196 35.4487113,38.335567 Z M36.0811856,49.8118557 C34.7729381,49.6471649 33.8543814,49.1662371 33.6221649,48.5221649 C33.325,47.6822165 34.0889175,46.3840206 35.5242268,45.2072165 C35.6108247,45.2185567 35.692268,45.2404639 35.7837629,45.2518041 C36.2283505,45.3085052 36.6938144,45.3347938 37.1657216,45.3347938 C38.8458763,45.3347938 40.6958763,44.993299 42.5221649,44.3396907 C43.9533505,43.8255155 45.2286082,43.1798969 46.307732,42.4510309 C47.0115979,42.6907216 47.4884021,43.0559278 47.6451031,43.493299 C48.1556701,44.9157216 45.7280928,47.5811856 41.7180412,49.0216495 C39.7484536,49.7268041 37.6951031,50.0157216 36.0811856,49.8118557 Z M45.6157216,54.5059278 C43.8270619,55.592268 41.875,56.2858247 40.2590206,56.4082474 C38.9363402,56.5069588 37.9425258,56.2195876 37.5850515,55.6368557 C37.142268,54.9043814 37.5695876,53.5721649 38.6582474,52.1708763 C39.9090206,52.0319588 41.2216495,51.7280928 42.5224227,51.2615979 C44.7108247,50.4791237 46.5324742,49.3801546 47.8407216,48.1520619 C47.7208763,49.2639175 48.056701,50.5219072 48.8574742,51.8324742 C48.0048969,52.8030928 46.881701,53.7365979 45.6157216,54.5059278 Z M53.9798969,24.253866 C54.1989691,23.6507732 55.2185567,23.2600515 56.5814433,23.2600515 C56.9479381,23.2600515 57.3347938,23.2948454 57.7293814,23.3466495 C58.1257732,25.1582474 58.9865979,27.1670103 59.7456186,28.7121134 C59.2773196,28.6074742 58.8054124,28.4801546 58.3332474,28.3115979 C56.8909794,27.7917526 55.5920103,26.9969072 54.7731959,26.1304124 C54.1103093,25.4273196 53.8139175,24.7219072 53.9798969,24.253866 Z M63.0981959,55.6368557 C62.739433,56.2195876 61.7463918,56.5069588 60.428866,56.4082474 C58.8092784,56.2858247 56.8608247,55.592268 55.0693299,54.5059278 C53.8046392,53.7350515 52.6793814,52.8012887 51.825,51.8322165 C52.6283505,50.5216495 52.964433,49.2636598 52.8414948,48.1518041 C54.1536082,49.3778351 55.9719072,50.4773196 58.1652062,51.2613402 C59.4623711,51.7280928 60.7760309,52.031701 62.0257732,52.1706186 C63.1170103,53.5721649 63.5399485,54.906701 63.0981959,55.6368557 Z M67.0590206,48.5201031 C66.8306701,49.1641753 65.9110825,49.6456186 64.6010309,49.8095361 C62.9907216,50.0139175 60.9386598,49.7268041 58.9677835,49.0198454 C54.9541237,47.5793814 52.5283505,44.9134021 53.0360825,43.4909794 C53.1948454,43.0546392 53.6742268,42.6907216 54.3801546,42.4489691 C55.4597938,43.1798969 56.7286082,43.8234536 58.1634021,44.3381443 C59.9871134,44.9909794 61.8427835,45.3332474 63.517268,45.3332474 C63.9930412,45.3332474 64.4572165,45.3064433 64.9025773,45.2497423 C64.9914948,45.2381443 65.0726804,45.2167526 65.1613402,45.2056701 C66.5945876,46.3824742 67.3610825,47.6801546 67.0590206,48.5201031 Z M67.0590206,41.5940722 C66.828866,42.2335052 65.9074742,42.7185567 64.5992268,42.8850515 C62.9889175,43.0909794 60.9347938,42.8005155 58.9659794,42.0956186 C54.9505155,40.6525773 52.5265464,37.9873711 53.0324742,36.5646907 C53.2157216,36.0690722 53.6742268,35.756701 54.1896907,35.5574742 C55.2829897,36.3087629 56.585567,36.9726804 58.0505155,37.4981959 C59.881701,38.1533505 61.731701,38.4930412 63.4043814,38.4930412 C63.8822165,38.4930412 64.3502577,38.4662371 64.7940722,38.4100515 C64.9448454,38.3889175 65.0847938,38.3615979 65.2340206,38.3353093 C66.6286082,39.5023196 67.3533505,40.7747423 67.0590206,41.5940722 Z M66.9458763,34.7572165 C66.7152062,35.3984536 65.8,35.8822165 64.4876289,36.0463918 C62.8755155,36.2512887 60.8255155,35.9615979 58.8543814,35.2572165 C54.8448454,33.817268 52.4152062,31.1494845 52.9265464,29.7283505 C53.1193299,29.1865979 53.8708763,28.6845361 54.8072165,28.4543814 C55.6528351,29.0518041 56.6536082,29.5703608 57.7427835,29.960567 C58.7528351,30.3224227 59.7760309,30.553866 60.757732,30.6453608 C60.8484536,30.807732 60.9237113,30.9466495 60.9842784,31.0489691 C61.1389175,31.321134 61.4296392,31.4917526 61.7430412,31.4994845 L61.7657216,31.4994845 C62.0752577,31.4994845 62.3585052,31.3445876 62.5283505,31.0832474 L62.8417526,30.5981959 C63.1023196,30.5551546 63.3646907,30.5 63.6064433,30.4337629 C66.2280928,31.9865979 67.2891753,33.817268 66.9458763,34.7572165 Z" id="Shape" fill="#F7F1E6"></path>
                        </g>
                    </g>
                </g>
            </g>
        </g>
    </g>
</svg>