<?xml version="1.0" encoding="UTF-8"?>
<svg width="100px" height="100px" viewBox="0 0 100 100" version="1.1" xmlns="http://www.w3.org/2000/svg" xmlns:xlink="http://www.w3.org/1999/xlink">
    <!-- Generator: Sketch 42 (36781) - http://www.bohemiancoding.com/sketch -->
    <title>urology</title>
    <desc>Created with Sketch.</desc>
    <defs></defs>
    <g id="Page-1" stroke="none" stroke-width="1" fill="none" fill-rule="evenodd">
        <g id="urology" fill-rule="nonzero">
            <g id="kidneys">
                <g id="Capa_1">
                    <g id="Group">
                        <path d="M12.0741304,35.1282609 C9.44152174,31.8434783 8.28717391,27.6652174 8.82413043,23.3565217 C9.39369565,18.7913043 11.8306522,14.5804348 15.508913,11.8021739 C18.2371739,9.74130435 21.3763043,8.69565217 24.8415217,8.69565217 C30.258913,8.69565217 36.0045652,11.3565217 40.211087,15.8108696 C40.5476087,16.1671739 40.8747826,16.5358696 41.1973913,16.9106522 C42.2002174,14.063913 43.708913,11.3693478 45.691087,8.98108696 C35.9915217,-0.569782609 21.181087,-3.37913043 10.2676087,4.86304348 C-0.967173913,13.3478261 -3.51717391,29.5826087 5.28934783,40.5673913 C7.96326087,43.9043478 9.0023913,46.5913043 9.0023913,50 L17.6980435,50 C17.6980435,44.5652174 15.9632609,39.9782609 12.0741304,35.1282609 Z" id="Shape" fill="#3FC3D8"></path>
                        <path d="M40.211087,84.1891304 C39.6852174,84.7458696 39.1354348,85.2747826 38.5652174,85.7736957 C34.5732609,89.2671739 29.5819565,91.3043478 24.8436957,91.3043478 C21.8093478,91.3043478 19.0269565,90.5036957 16.551087,88.9230435 C16.1973913,88.6971739 15.85,88.4554348 15.508913,88.1978261 C11.8306522,85.4195652 9.39369565,81.2086957 8.82413043,76.6434783 C8.28717391,72.3347826 9.44152174,68.1565217 12.0741304,64.8717391 C15.9632609,60.0217391 17.6980435,55.4347826 17.6980435,50 L9.0023913,50 C9.0023913,53.4086957 7.96326087,56.0956522 5.28934783,59.4326087 C-3.51717391,70.4173913 -0.967173913,86.6521739 10.2676087,95.1369565 C21.181087,103.37913 35.9915217,100.569783 45.691087,91.0191304 C43.708913,88.6308696 42.2002174,85.9363043 41.1973913,83.0895652 C40.8747826,83.4641304 40.5476087,83.8328261 40.211087,84.1891304 Z" id="Shape" fill="#1398AD"></path>
                        <path d="M41.1973913,16.9106522 C40.8747826,16.536087 40.5476087,16.1671739 40.211087,15.8108696 C36.0045652,11.3565217 30.258913,8.69565217 24.8415217,8.69565217 C21.3763043,8.69565217 18.2371739,9.74130435 15.508913,11.8021739 C11.8306522,14.5804348 9.39369565,18.7913043 8.82413043,23.3565217 C8.28717391,27.6652174 9.44152174,31.8434783 12.0741304,35.1282609 C15.9632609,39.9782609 17.6980435,44.5652174 17.6980435,50 L48.7369565,50 C48.7369565,46.5913043 47.6978261,43.9043478 45.023913,40.5673913 C39.5004348,33.6778261 38.4452174,24.7232609 41.1973913,16.9106522 Z" id="Shape" fill="#6BE0F4"></path>
                        <path d="M12.0741304,64.8717391 C9.44152174,68.1565217 8.28717391,72.3347826 8.82413043,76.6434783 C9.39369565,81.2086957 11.8306522,85.4195652 15.508913,88.1978261 C15.85,88.4554348 16.1973913,88.6971739 16.551087,88.9230435 C19.0267391,90.5036957 21.8091304,91.3041304 24.8426087,91.3043478 C29.5819565,91.3043478 34.5732609,89.2671739 38.565,85.7736957 C39.1352174,85.2747826 39.6852174,84.7458696 40.2108696,84.1891304 C40.5473913,83.8328261 40.8745652,83.4641304 41.1971739,83.0893478 C38.445,75.2767391 39.5002174,66.3221739 45.0236957,59.4326087 C47.6976087,56.0956522 48.7367391,53.4086957 48.7367391,50 L17.6980435,50 C17.6980435,55.4347826 15.9632609,60.0217391 12.0741304,64.8717391 Z" id="Shape" fill="#3FC3D8"></path>
                        <path d="M45.023913,40.5673913 C47.6978261,43.9043478 48.7369565,46.5913043 48.7369565,50 L65.5195652,50 L65.5195652,35.8695652 L74.2152174,35.8695652 L74.2152174,50 L100,50 C100,35.3782609 96.1804348,20.3369565 86.2695652,9.84130435 C76.6021739,-0.395652174 61.2369565,-3.62173913 50.0021739,4.86304348 C48.3813043,6.08717391 46.9423913,7.47326087 45.691087,8.98086957 C43.708913,11.3691304 42.2002174,14.0636957 41.1973913,16.9104348 C38.4452174,24.7232609 39.5004348,33.6778261 45.023913,40.5673913 Z" id="Shape" fill="#4370D9"></path>
                        <path d="M74.2152174,50 L74.2152174,64.1304348 L65.5195652,64.1304348 L65.5195652,50 L48.7369565,50 C48.7369565,53.4086957 47.6978261,56.0956522 45.023913,59.4326087 C39.5004348,66.3221739 38.4452174,75.2767391 41.1973913,83.0893478 C42.2002174,85.936087 43.708913,88.6306522 45.691087,91.018913 C46.9423913,92.5265217 48.3813043,93.9128261 50.0021739,95.1367391 C61.2369565,103.621522 76.6021739,100.395435 86.2695652,90.1584783 C96.1804348,79.6630435 100,64.6217391 100,50 L74.2152174,50 Z" id="Shape" fill="#0B389C"></path>
                        <rect id="Rectangle-path" fill="#3FC3D8" x="65.5195652" y="50" width="8.69565217" height="14.1304348"></rect>
                        <rect id="Rectangle-path" fill="#6BE0F4" x="65.5195652" y="35.8695652" width="8.69565217" height="14.1304348"></rect>
                    </g>
                </g>
            </g>
        </g>
    </g>
</svg>